<?xml version="1.0" encoding="UTF-8" ?>
<!DOCTYPE svg PUBLIC "-//W3C//DTD SVG 1.1//EN" "http://www.w3.org/Graphics/SVG/1.1/DTD/svg11.dtd">
<svg width="1042pt" height="1042pt" viewBox="0 0 1042 1042" version="1.1" xmlns="http://www.w3.org/2000/svg">
<g id="#383431ff">
<path fill="#383431" opacity="1.00" d=" M 0.00 0.00 L 1042.00 0.00 L 1042.00 1042.00 L 0.00 1042.00 L 0.00 0.00 M 380.60 368.58 C 373.68 376.62 371.58 387.61 371.58 397.94 C 371.74 420.98 371.36 444.02 371.72 467.06 C 371.90 469.39 371.12 472.23 373.07 474.03 C 377.54 478.95 382.68 483.27 388.32 486.80 C 394.60 490.81 402.10 492.01 408.81 495.07 C 416.11 478.54 428.22 464.27 443.07 454.02 C 452.14 447.60 462.63 443.61 473.04 439.98 C 477.24 435.85 480.63 430.40 486.56 428.51 C 494.75 424.97 503.82 427.87 511.33 431.72 C 518.40 435.28 525.67 440.02 533.95 439.19 C 545.71 438.14 554.95 429.48 566.51 427.70 C 578.07 425.89 590.49 431.29 596.91 441.11 C 601.06 447.32 602.51 454.81 603.61 462.07 C 604.28 466.25 603.20 470.43 603.12 474.61 C 600.22 472.06 597.04 469.58 593.14 468.88 C 583.07 466.47 572.90 471.07 564.96 477.01 C 553.42 485.58 538.49 491.24 524.05 487.96 C 513.98 485.59 502.94 485.94 493.55 490.59 C 485.63 494.83 475.70 494.44 467.72 490.55 C 467.34 498.88 468.90 508.66 476.30 513.72 C 488.19 521.12 502.70 522.88 514.44 530.60 C 526.37 538.87 535.39 550.54 543.48 562.43 C 547.75 568.73 555.25 573.03 562.97 572.37 C 567.91 571.96 572.13 569.01 575.30 565.36 C 574.95 574.73 569.91 584.32 560.96 588.02 C 552.22 592.51 541.72 589.21 534.21 583.77 C 525.07 577.56 515.68 569.63 504.00 569.81 C 497.73 569.43 492.13 572.61 486.08 573.60 C 480.48 574.52 475.55 577.51 470.09 578.93 C 463.84 580.53 458.02 583.41 452.34 586.40 C 444.92 590.35 439.12 596.59 432.17 601.23 C 408.17 618.26 389.91 644.58 385.76 674.03 C 384.83 679.68 390.99 683.29 395.95 683.12 C 422.30 683.09 448.65 683.16 475.00 683.09 C 481.00 683.02 487.00 683.26 492.98 682.72 C 509.91 681.21 526.85 679.83 543.79 678.36 C 587.90 670.42 628.00 642.03 649.68 602.71 C 668.84 568.26 674.12 527.02 667.33 488.43 C 661.75 456.87 646.72 426.80 623.61 404.43 C 599.14 380.56 566.62 365.70 532.92 360.84 C 511.10 357.48 488.98 358.91 467.00 358.62 C 446.02 358.63 425.04 358.61 404.06 358.63 C 395.35 358.56 386.30 361.79 380.60 368.58 M 488.12 438.72 C 488.24 443.65 490.32 448.67 494.54 451.47 C 500.42 455.93 510.53 453.55 513.06 446.39 C 505.94 441.03 497.05 438.08 488.12 438.72 M 565.72 453.16 C 570.37 450.31 572.05 444.21 569.25 439.47 C 561.77 438.51 559.09 450.28 565.72 453.16 Z" />
<path fill="#383431" opacity="1.00" d=" M 523.27 431.59 C 528.54 429.01 533.69 426.15 539.07 423.81 C 542.28 424.81 545.12 426.66 548.07 428.24 C 541.22 433.83 531.33 435.55 523.27 431.59 Z" />
<path fill="#383431" opacity="1.00" d=" M 563.96 489.43 C 570.70 484.64 578.11 480.73 585.97 478.16 C 589.17 476.81 592.31 478.82 594.57 480.96 C 590.72 487.80 584.15 492.61 576.93 495.40 C 574.47 493.17 571.81 491.18 569.11 489.27 C 573.58 487.08 578.65 487.17 583.31 485.61 C 576.62 484.91 569.99 486.64 563.96 489.43 Z" />
<path fill="#383431" opacity="1.00" d=" M 535.16 503.81 C 542.33 504.66 549.29 508.70 552.51 515.35 C 558.39 526.06 555.69 539.14 561.17 549.98 C 563.28 554.32 567.65 556.74 571.26 559.67 C 571.18 560.46 571.01 562.04 570.93 562.83 C 567.99 564.87 564.33 566.63 560.72 565.27 C 552.04 562.82 547.22 554.61 542.13 547.86 C 534.64 535.28 522.98 525.06 509.37 519.58 C 506.85 518.47 504.53 516.59 503.66 513.89 C 504.17 511.67 506.18 510.15 507.99 508.96 C 517.94 503.42 531.63 506.56 538.25 515.81 C 539.30 517.60 541.03 518.68 542.98 519.30 C 543.52 513.07 540.25 507.23 535.16 503.81 Z" />
</g>
<g id="#f3b01bff">
<path fill="#f3b01b" opacity="1.00" d=" M 380.60 368.58 C 386.30 361.79 395.35 358.56 404.06 358.63 C 425.04 358.61 446.02 358.63 467.00 358.62 C 488.98 358.91 511.10 357.48 532.92 360.84 C 566.62 365.70 599.14 380.56 623.61 404.43 C 646.72 426.80 661.75 456.87 667.33 488.43 C 674.12 527.02 668.84 568.26 649.68 602.71 C 628.00 642.03 587.90 670.42 543.79 678.36 C 526.85 679.83 509.91 681.21 492.98 682.72 C 487.00 683.26 481.00 683.02 475.00 683.09 C 448.65 683.16 422.30 683.09 395.95 683.12 C 390.99 683.29 384.83 679.68 385.76 674.03 C 389.91 644.58 408.17 618.26 432.17 601.23 C 439.12 596.59 444.92 590.35 452.34 586.40 C 458.02 583.41 463.84 580.53 470.09 578.93 C 475.55 577.51 480.48 574.52 486.08 573.60 C 492.13 572.61 497.73 569.43 504.00 569.81 C 515.68 569.63 525.07 577.56 534.21 583.77 C 541.72 589.21 552.22 592.51 560.96 588.02 C 569.91 584.32 574.95 574.73 575.30 565.36 C 572.13 569.01 567.91 571.96 562.97 572.37 C 555.25 573.03 547.75 568.73 543.48 562.43 C 535.39 550.54 526.37 538.87 514.44 530.60 C 502.70 522.88 488.19 521.12 476.30 513.72 C 468.90 508.66 467.34 498.88 467.72 490.55 C 475.70 494.44 485.63 494.83 493.55 490.59 C 502.94 485.94 513.98 485.59 524.05 487.96 C 538.49 491.24 553.42 485.58 564.96 477.01 C 572.90 471.07 583.07 466.47 593.14 468.88 C 597.04 469.58 600.22 472.06 603.12 474.61 C 603.20 470.43 604.28 466.25 603.61 462.07 C 602.51 454.81 601.06 447.32 596.91 441.11 C 590.49 431.29 578.07 425.89 566.51 427.70 C 554.95 429.48 545.71 438.14 533.95 439.19 C 525.67 440.02 518.40 435.28 511.33 431.72 C 503.82 427.87 494.75 424.97 486.56 428.51 C 480.63 430.40 477.24 435.85 473.04 439.98 C 462.63 443.61 452.14 447.60 443.07 454.02 C 428.22 464.27 416.11 478.54 408.81 495.07 C 402.10 492.01 394.60 490.81 388.32 486.80 C 382.68 483.27 377.54 478.95 373.07 474.03 C 371.12 472.23 371.90 469.39 371.72 467.06 C 371.36 444.02 371.74 420.98 371.58 397.94 C 371.58 387.61 373.68 376.62 380.60 368.58 M 523.27 431.59 C 531.33 435.55 541.22 433.83 548.07 428.24 C 545.12 426.66 542.28 424.81 539.07 423.81 C 533.69 426.15 528.54 429.01 523.27 431.59 M 563.96 489.43 C 569.99 486.64 576.62 484.91 583.31 485.61 C 578.65 487.17 573.58 487.08 569.11 489.27 C 571.81 491.18 574.47 493.17 576.93 495.40 C 584.15 492.61 590.72 487.80 594.57 480.96 C 592.31 478.82 589.17 476.81 585.97 478.16 C 578.11 480.73 570.70 484.64 563.96 489.43 M 535.16 503.81 C 540.25 507.23 543.52 513.07 542.98 519.30 C 541.03 518.68 539.30 517.60 538.25 515.81 C 531.63 506.56 517.94 503.42 507.99 508.96 C 506.18 510.15 504.17 511.67 503.66 513.89 C 504.53 516.59 506.85 518.47 509.37 519.58 C 522.98 525.06 534.64 535.28 542.13 547.86 C 547.22 554.61 552.04 562.82 560.72 565.27 C 564.33 566.63 567.99 564.87 570.93 562.83 C 571.01 562.04 571.18 560.46 571.26 559.67 C 567.65 556.74 563.28 554.32 561.17 549.98 C 555.69 539.14 558.39 526.06 552.51 515.35 C 549.29 508.70 542.33 504.66 535.16 503.81 Z" />
<path fill="#f3b01b" opacity="1.00" d=" M 488.12 438.72 C 497.05 438.08 505.94 441.03 513.06 446.39 C 510.53 453.55 500.42 455.93 494.54 451.47 C 490.32 448.67 488.24 443.65 488.12 438.72 Z" />
<path fill="#f3b01b" opacity="1.00" d=" M 565.72 453.16 C 559.09 450.28 561.77 438.51 569.25 439.47 C 572.05 444.21 570.37 450.31 565.72 453.16 Z" />
</g>
</svg>
